<svg xmlns="http://www.w3.org/2000/svg" viewBox="0 0 512 512">
  <defs>
    <linearGradient id="bg" x1="0%" y1="0%" x2="100%" y2="100%">
      <stop offset="0%" style="stop-color:#81C784"/>
      <stop offset="100%" style="stop-color:#5BA97B"/>
    </linearGradient>
  </defs>
  <rect width="512" height="512" rx="108" fill="url(#bg)"/>
  <!-- Pill capsule -->
  <rect x="160" y="128" width="192" height="256" rx="96" fill="#fff" opacity="0.95"/>
  <rect x="160" y="128" width="192" height="128" rx="96" fill="#FFB74D" opacity="0.85"/>
  <line x1="160" y1="256" x2="352" y2="256" stroke="#eee" stroke-width="4"/>
  <!-- Heart -->
  <g transform="translate(256,346)">
    <path d="M0-22C-11-44-44-44-44-22C-44 0-0 33 0 44C0 33 44 0 44-22C44-44 11-44 0-22Z" fill="#E57373" opacity="0.9"/>
  </g>
  <!-- Plus sign -->
  <g transform="translate(256,200)" fill="#fff" opacity="0.8">
    <rect x="-22" y="-5" width="44" height="10" rx="5"/>
    <rect x="-5" y="-22" width="10" height="44" rx="5"/>
  </g>
</svg>
